<svg xmlns="http://www.w3.org/2000/svg" width="600" height="400" viewBox="0 0 600 400">
  <defs>
    <linearGradient id="bg" x1="0%" y1="0%" x2="100%" y2="100%">
      <stop offset="0%" style="stop-color:#6366f1;stop-opacity:1" />
      <stop offset="100%" style="stop-color:#8b5cf6;stop-opacity:1" />
    </linearGradient>
    <linearGradient id="card" x1="0%" y1="0%" x2="0%" y2="100%">
      <stop offset="0%" style="stop-color:#ffffff;stop-opacity:0.95" />
      <stop offset="100%" style="stop-color:#f8fafc;stop-opacity:0.9" />
    </linearGradient>
  </defs>
  <rect width="600" height="400" fill="url(#bg)" rx="0"/>
  <!-- Browser chrome -->
  <rect x="40" y="30" width="520" height="340" rx="8" fill="url(#card)" opacity="0.95"/>
  <rect x="40" y="30" width="520" height="32" rx="8" fill="#f1f5f9"/>
  <rect x="40" y="54" width="520" height="8" fill="#f1f5f9"/>
  <circle cx="60" cy="46" r="5" fill="#fca5a5"/>
  <circle cx="76" cy="46" r="5" fill="#fcd34d"/>
  <circle cx="92" cy="46" r="5" fill="#86efac"/>
  <rect x="180" y="40" width="240" height="12" rx="6" fill="#e2e8f0"/>
  <!-- Nav bar -->
  <rect x="60" y="75" width="60" height="8" rx="4" fill="#6366f1"/>
  <rect x="380" y="75" width="40" height="8" rx="4" fill="#cbd5e1"/>
  <rect x="430" y="75" width="40" height="8" rx="4" fill="#cbd5e1"/>
  <rect x="480" y="75" width="60" height="8" rx="4" fill="#cbd5e1"/>
  <!-- Hero section -->
  <rect x="60" y="105" width="280" height="16" rx="4" fill="#1e293b"/>
  <rect x="60" y="128" width="220" height="12" rx="4" fill="#1e293b" opacity="0.7"/>
  <rect x="60" y="152" width="300" height="8" rx="4" fill="#94a3b8"/>
  <rect x="60" y="166" width="260" height="8" rx="4" fill="#94a3b8"/>
  <rect x="60" y="190" width="100" height="28" rx="6" fill="#6366f1"/>
  <rect x="70" y="200" width="80" height="8" rx="4" fill="#ffffff"/>
  <!-- Hero image -->
  <rect x="380" y="105" width="160" height="113" rx="8" fill="#e2e8f0"/>
  <circle cx="420" cy="140" r="12" fill="#c7d2fe"/>
  <polygon points="400,200 460,160 520,200" fill="#c7d2fe" opacity="0.7"/>
  <!-- Content blocks -->
  <rect x="60" y="240" width="150" height="100" rx="6" fill="#f1f5f9"/>
  <rect x="75" y="255" width="50" height="6" rx="3" fill="#6366f1" opacity="0.5"/>
  <rect x="75" y="268" width="120" height="5" rx="2" fill="#cbd5e1"/>
  <rect x="75" y="278" width="100" height="5" rx="2" fill="#cbd5e1"/>
  <rect x="75" y="288" width="110" height="5" rx="2" fill="#cbd5e1"/>
  <rect x="225" y="240" width="150" height="100" rx="6" fill="#f1f5f9"/>
  <rect x="240" y="255" width="50" height="6" rx="3" fill="#6366f1" opacity="0.5"/>
  <rect x="240" y="268" width="120" height="5" rx="2" fill="#cbd5e1"/>
  <rect x="240" y="278" width="100" height="5" rx="2" fill="#cbd5e1"/>
  <rect x="240" y="288" width="110" height="5" rx="2" fill="#cbd5e1"/>
  <rect x="390" y="240" width="150" height="100" rx="6" fill="#f1f5f9"/>
  <rect x="405" y="255" width="50" height="6" rx="3" fill="#6366f1" opacity="0.5"/>
  <rect x="405" y="268" width="120" height="5" rx="2" fill="#cbd5e1"/>
  <rect x="405" y="278" width="100" height="5" rx="2" fill="#cbd5e1"/>
  <rect x="405" y="288" width="110" height="5" rx="2" fill="#cbd5e1"/>
</svg>
